<svg xmlns="http://www.w3.org/2000/svg" xmlns:xlink="http://www.w3.org/1999/xlink" id="Layer_1" x="0" y="0" preserveAspectRatio="xMinYMid" version="1.1" viewBox="0 -0.5 25 25" xml:space="preserve" style="enable-background:new 0 -.5 25 25"><style type="text/css">.st0{fill:#000}</style><path d="M17.7,16c-0.6,0-1.2,0.2-1.7,0.6l-6-3.7c0-0.1,0-0.1,0-0.2c0-0.3-0.1-0.6-0.1-0.8l6.3-4.2	c0.4,0.3,1,0.4,1.5,0.4c1.6,0,2.9-1.3,2.9-2.9s-1.3-2.9-2.9-2.9s-2.9,1.3-2.9,2.9c0,0.2,0,0.3,0,0.5L8.3,10C7.9,9.8,7.5,9.7,7.1,9.7	c-1.6,0-2.9,1.3-2.9,2.9s1.3,2.9,2.9,2.9c0.7,0,1.3-0.2,1.7-0.6l5.9,3.7c0,0.1,0,0.2,0,0.2c0,1.6,1.3,2.9,2.9,2.9s2.9-1.3,2.9-2.9	C20.6,17.3,19.3,16,17.7,16z" class="st0"/></svg>